<svg width="256" height="256" viewBox="0 0 256 256" fill="none" xmlns="http://www.w3.org/2000/svg">
<g clip-path="url(#clip0_532_279)">
<rect width="256" height="256" rx="33.3913" fill="#131316"/>
<g filter="url(#filter0_d_532_279)">
<path fill-rule="evenodd" clip-rule="evenodd" d="M64.5472 102.343C64.5472 106.975 64.9998 110.029 65.9048 113.52C66.251 114.856 67.4746 115.765 68.8542 115.765L87.2633 115.765C90.6892 115.765 93.4664 118.542 93.4665 121.968L93.4668 133.229C93.4669 134.942 94.8555 136.331 96.5684 136.331L155.954 136.331C157.77 136.331 159.542 137.101 160.468 138.663C163.008 142.946 164.278 148.845 164.278 154.292C164.278 160.028 162.933 164.958 160.244 169.08C157.376 173.382 153.702 176.698 149.221 179.029C144.56 181.359 139.81 182.524 134.97 182.524L120.464 182.524C110.964 182.524 103.435 180.015 97.8783 174.996C92.3215 169.977 88.6469 162.448 86.8544 152.41L64 152.41C65.2548 163.524 68.3916 172.845 73.4106 180.373C78.4296 187.902 84.9722 193.458 93.0385 197.043C101.105 200.808 110.067 202.69 119.926 202.69L134.97 202.69C144.47 202.69 153.254 200.628 161.32 196.506C169.386 192.383 175.839 186.557 180.679 179.029C185.519 171.679 187.939 163.075 187.939 153.217C187.939 148.462 187.462 142.819 186.508 138.436C186.216 137.089 184.994 136.182 183.616 136.182L165.322 136.182C161.896 136.182 159.119 133.405 159.119 129.979L159.118 118.829C159.118 117.116 157.73 115.728 156.017 115.728L96.5614 115.728C94.7512 115.728 92.9963 114.961 91.9335 113.496C89.45 110.072 88.2082 106.654 88.2082 101.267C88.2082 95.5311 89.5526 90.6017 92.2413 86.4789C95.1093 82.1769 98.784 78.8608 103.265 76.5306C107.926 74.2003 112.676 73.0352 117.516 73.0352L132.022 73.0352C141.522 73.0352 149.051 75.5447 154.608 80.5637C160.164 85.5827 163.839 93.1112 165.631 103.149L188.486 103.149C187.231 92.0357 184.094 82.7147 179.075 75.1862C174.056 67.6577 167.514 62.1009 159.447 58.5159C151.381 54.7517 142.419 52.8696 132.56 52.8696L117.516 52.8696C108.015 52.8696 99.2321 54.9309 91.1658 59.0537C83.0996 63.1764 76.6466 69.0021 71.8069 76.5306C66.9671 83.8798 64.5472 92.4838 64.5472 102.343Z" fill="#B0B4CC"/>
<path fill-rule="evenodd" clip-rule="evenodd" d="M64.5472 102.343C64.5472 106.975 64.9998 110.029 65.9048 113.52C66.251 114.856 67.4746 115.765 68.8542 115.765L87.2633 115.765C90.6892 115.765 93.4664 118.542 93.4665 121.968L93.4668 133.229C93.4669 134.942 94.8555 136.331 96.5684 136.331L155.954 136.331C157.77 136.331 159.542 137.101 160.468 138.663C163.008 142.946 164.278 148.845 164.278 154.292C164.278 160.028 162.933 164.958 160.244 169.08C157.376 173.382 153.702 176.698 149.221 179.029C144.56 181.359 139.81 182.524 134.97 182.524L120.464 182.524C110.964 182.524 103.435 180.015 97.8783 174.996C92.3215 169.977 88.6469 162.448 86.8544 152.41L64 152.41C65.2548 163.524 68.3916 172.845 73.4106 180.373C78.4296 187.902 84.9722 193.458 93.0385 197.043C101.105 200.808 110.067 202.69 119.926 202.69L134.97 202.69C144.47 202.69 153.254 200.628 161.32 196.506C169.386 192.383 175.839 186.557 180.679 179.029C185.519 171.679 187.939 163.075 187.939 153.217C187.939 148.462 187.462 142.819 186.508 138.436C186.216 137.089 184.994 136.182 183.616 136.182L165.322 136.182C161.896 136.182 159.119 133.405 159.119 129.979L159.118 118.829C159.118 117.116 157.73 115.728 156.017 115.728L96.5614 115.728C94.7512 115.728 92.9963 114.961 91.9335 113.496C89.45 110.072 88.2082 106.654 88.2082 101.267C88.2082 95.5311 89.5526 90.6017 92.2413 86.4789C95.1093 82.1769 98.784 78.8608 103.265 76.5306C107.926 74.2003 112.676 73.0352 117.516 73.0352L132.022 73.0352C141.522 73.0352 149.051 75.5447 154.608 80.5637C160.164 85.5827 163.839 93.1112 165.631 103.149L188.486 103.149C187.231 92.0357 184.094 82.7147 179.075 75.1862C174.056 67.6577 167.514 62.1009 159.447 58.5159C151.381 54.7517 142.419 52.8696 132.56 52.8696L117.516 52.8696C108.015 52.8696 99.2321 54.9309 91.1658 59.0537C83.0996 63.1764 76.6466 69.0021 71.8069 76.5306C66.9671 83.8798 64.5472 92.4838 64.5472 102.343Z" fill="url(#paint0_radial_532_279)"/>
<path fill-rule="evenodd" clip-rule="evenodd" d="M64.5472 102.343C64.5472 106.975 64.9998 110.029 65.9048 113.52C66.251 114.856 67.4746 115.765 68.8542 115.765L87.2633 115.765C90.6892 115.765 93.4664 118.542 93.4665 121.968L93.4668 133.229C93.4669 134.942 94.8555 136.331 96.5684 136.331L155.954 136.331C157.77 136.331 159.542 137.101 160.468 138.663C163.008 142.946 164.278 148.845 164.278 154.292C164.278 160.028 162.933 164.958 160.244 169.08C157.376 173.382 153.702 176.698 149.221 179.029C144.56 181.359 139.81 182.524 134.97 182.524L120.464 182.524C110.964 182.524 103.435 180.015 97.8783 174.996C92.3215 169.977 88.6469 162.448 86.8544 152.41L64 152.41C65.2548 163.524 68.3916 172.845 73.4106 180.373C78.4296 187.902 84.9722 193.458 93.0385 197.043C101.105 200.808 110.067 202.69 119.926 202.69L134.97 202.69C144.47 202.69 153.254 200.628 161.32 196.506C169.386 192.383 175.839 186.557 180.679 179.029C185.519 171.679 187.939 163.075 187.939 153.217C187.939 148.462 187.462 142.819 186.508 138.436C186.216 137.089 184.994 136.182 183.616 136.182L165.322 136.182C161.896 136.182 159.119 133.405 159.119 129.979L159.118 118.829C159.118 117.116 157.73 115.728 156.017 115.728L96.5614 115.728C94.7512 115.728 92.9963 114.961 91.9335 113.496C89.45 110.072 88.2082 106.654 88.2082 101.267C88.2082 95.5311 89.5526 90.6017 92.2413 86.4789C95.1093 82.1769 98.784 78.8608 103.265 76.5306C107.926 74.2003 112.676 73.0352 117.516 73.0352L132.022 73.0352C141.522 73.0352 149.051 75.5447 154.608 80.5637C160.164 85.5827 163.839 93.1112 165.631 103.149L188.486 103.149C187.231 92.0357 184.094 82.7147 179.075 75.1862C174.056 67.6577 167.514 62.1009 159.447 58.5159C151.381 54.7517 142.419 52.8696 132.56 52.8696L117.516 52.8696C108.015 52.8696 99.2321 54.9309 91.1658 59.0537C83.0996 63.1764 76.6466 69.0021 71.8069 76.5306C66.9671 83.8798 64.5472 92.4838 64.5472 102.343Z" fill="url(#paint1_radial_532_279)" fill-opacity="0.9"/>
<path fill-rule="evenodd" clip-rule="evenodd" d="M64.5472 102.343C64.5472 106.975 64.9998 110.029 65.9048 113.52C66.251 114.856 67.4746 115.765 68.8542 115.765L87.2633 115.765C90.6892 115.765 93.4664 118.542 93.4665 121.968L93.4668 133.229C93.4669 134.942 94.8555 136.331 96.5684 136.331L155.954 136.331C157.77 136.331 159.542 137.101 160.468 138.663C163.008 142.946 164.278 148.845 164.278 154.292C164.278 160.028 162.933 164.958 160.244 169.08C157.376 173.382 153.702 176.698 149.221 179.029C144.56 181.359 139.81 182.524 134.97 182.524L120.464 182.524C110.964 182.524 103.435 180.015 97.8783 174.996C92.3215 169.977 88.6469 162.448 86.8544 152.41L64 152.41C65.2548 163.524 68.3916 172.845 73.4106 180.373C78.4296 187.902 84.9722 193.458 93.0385 197.043C101.105 200.808 110.067 202.69 119.926 202.69L134.97 202.69C144.47 202.69 153.254 200.628 161.32 196.506C169.386 192.383 175.839 186.557 180.679 179.029C185.519 171.679 187.939 163.075 187.939 153.217C187.939 148.462 187.462 142.819 186.508 138.436C186.216 137.089 184.994 136.182 183.616 136.182L165.322 136.182C161.896 136.182 159.119 133.405 159.119 129.979L159.118 118.829C159.118 117.116 157.73 115.728 156.017 115.728L96.5614 115.728C94.7512 115.728 92.9963 114.961 91.9335 113.496C89.45 110.072 88.2082 106.654 88.2082 101.267C88.2082 95.5311 89.5526 90.6017 92.2413 86.4789C95.1093 82.1769 98.784 78.8608 103.265 76.5306C107.926 74.2003 112.676 73.0352 117.516 73.0352L132.022 73.0352C141.522 73.0352 149.051 75.5447 154.608 80.5637C160.164 85.5827 163.839 93.1112 165.631 103.149L188.486 103.149C187.231 92.0357 184.094 82.7147 179.075 75.1862C174.056 67.6577 167.514 62.1009 159.447 58.5159C151.381 54.7517 142.419 52.8696 132.56 52.8696L117.516 52.8696C108.015 52.8696 99.2321 54.9309 91.1658 59.0537C83.0996 63.1764 76.6466 69.0021 71.8069 76.5306C66.9671 83.8798 64.5472 92.4838 64.5472 102.343Z" fill="url(#paint2_radial_532_279)"/>
<path d="M160.356 169.155L160.357 169.154C163.062 165.006 164.412 160.05 164.412 154.292C164.412 148.828 163.139 142.904 160.584 138.594C159.628 136.981 157.804 136.196 155.954 136.196L96.5684 136.196C94.9298 136.196 93.6014 134.868 93.6013 133.229L93.601 121.968C93.6009 118.468 90.7635 115.63 87.2633 115.63L68.8542 115.63C67.5333 115.63 66.3652 114.76 66.035 113.487C65.1328 110.007 64.6817 106.964 64.6817 102.343C64.6817 92.5068 67.0956 83.9292 71.9192 76.6045L71.92 76.6033C76.7467 69.095 83.1817 63.2855 91.2271 59.1735C99.2734 55.0609 108.036 53.0041 117.516 53.0041L132.56 53.0041C142.401 53.0041 151.344 54.8828 159.39 58.6379L159.393 58.6389C167.435 62.2132 173.958 67.7529 178.963 75.2608C183.945 82.734 187.071 91.9835 188.335 103.015L165.744 103.015C163.941 93.0131 160.263 85.4904 154.698 80.4639C149.11 75.417 141.546 72.9007 132.022 72.9007L117.516 72.9007C112.653 72.9007 107.883 74.0714 103.205 76.4102L103.203 76.4112C98.7013 78.7522 95.0097 82.0839 92.1294 86.4043L92.1287 86.4055C89.4234 90.5535 88.0737 95.5094 88.0737 101.267C88.0737 106.681 89.3238 110.127 91.8247 113.575C92.9165 115.08 94.7148 115.862 96.5614 115.862L156.017 115.862C157.655 115.862 158.984 117.19 158.984 118.829L158.984 129.979C158.984 133.479 161.822 136.317 165.322 136.317L183.616 136.317C184.936 136.317 186.099 137.185 186.377 138.464C187.328 142.835 187.804 148.469 187.804 153.217C187.804 163.052 185.39 171.63 180.567 178.955L180.566 178.956C175.739 186.464 169.304 192.274 161.259 196.386C153.212 200.498 144.45 202.555 134.97 202.555L119.926 202.555C110.085 202.555 101.142 200.676 93.0954 196.921L93.0931 196.92C85.0508 193.346 78.5278 187.806 73.5226 180.298C68.5404 172.825 65.4148 163.576 64.1507 152.545L86.7418 152.545C88.545 162.546 92.2229 170.069 97.7881 175.095C103.376 180.142 110.939 182.659 120.464 182.659L134.97 182.659C139.832 182.659 144.603 181.488 149.281 179.149L149.283 179.148C153.785 176.807 157.476 173.475 160.356 169.155Z" stroke="black" stroke-width="0.269036"/>
</g>
<g filter="url(#filter1_f_532_279)">
<path d="M177.25 192.737C169.498 193.172 166.138 182.326 173.545 180.778C177.119 180.032 181.099 182.525 182.07 186.119C182.992 189.534 180.804 192.538 177.25 192.737Z" fill="#B6CDE0"/>
</g>
<path d="M78.9359 186.211C78.875 186.069 80.0214 185.589 80.1343 185.706C85.219 190.948 96.9769 198.551 122.536 198.881C158.886 199.35 170.579 185.177 174.054 178.553C174.785 177.159 177.075 176.902 178.378 178.209C179.091 178.923 179.306 179.901 178.834 180.62C175.602 185.549 161.047 203.725 122.536 203.054C84.4754 202.391 78.9727 186.318 78.9381 186.216C78.937 186.213 78.9373 186.214 78.9359 186.211Z" fill="url(#paint3_linear_532_279)"/>
<g filter="url(#filter2_f_532_279)">
<path d="M140.306 197.502C137.913 197.912 135.641 197.966 133.566 197.552C136.437 196.565 138.904 195.798 141.047 195.156C145.59 193.611 149.755 192.03 153.306 190.579C155.01 189.343 156.394 187.649 157.93 184.941C159.277 182.565 171.112 176.024 175.236 174.849C180.781 172.221 179.766 174.086 179.05 176.14C180.065 175.483 180.781 175.095 181.134 175.067C184.87 174.777 177.143 179.827 175.776 184.968C174.41 190.108 162.486 197.735 157.93 197.551C155.117 197.438 146.495 197.465 140.306 197.502Z" fill="#B4FBB2"/>
</g>
<g filter="url(#filter3_f_532_279)">
<ellipse cx="126.239" cy="150.04" rx="41.7391" ry="36.1739" fill="#B2FBDC"/>
</g>
</g>
<rect x="1.3913" y="1.3913" width="253.217" height="253.217" rx="32" stroke="#202024" stroke-width="2.78261"/>
<defs>
<filter id="filter0_d_532_279" x="52.8696" y="41.7391" width="146.747" height="172.081" filterUnits="userSpaceOnUse" color-interpolation-filters="sRGB">
<feFlood flood-opacity="0" result="BackgroundImageFix"/>
<feColorMatrix in="SourceAlpha" type="matrix" values="0 0 0 0 0 0 0 0 0 0 0 0 0 0 0 0 0 0 127 0" result="hardAlpha"/>
<feOffset/>
<feGaussianBlur stdDeviation="5.56522"/>
<feComposite in2="hardAlpha" operator="out"/>
<feColorMatrix type="matrix" values="0 0 0 0 0.690196 0 0 0 0 0.705882 0 0 0 0 0.8 0 0 0 0.6 0"/>
<feBlend mode="normal" in2="BackgroundImageFix" result="effect1_dropShadow_532_279"/>
<feBlend mode="normal" in="SourceGraphic" in2="effect1_dropShadow_532_279" result="shape"/>
</filter>
<filter id="filter1_f_532_279" x="147.152" y="158.385" width="57.3895" height="56.626" filterUnits="userSpaceOnUse" color-interpolation-filters="sRGB">
<feFlood flood-opacity="0" result="BackgroundImageFix"/>
<feBlend mode="normal" in="SourceGraphic" in2="BackgroundImageFix" result="shape"/>
<feGaussianBlur stdDeviation="11.1304" result="effect1_foregroundBlur_532_279"/>
</filter>
<filter id="filter2_f_532_279" x="128" y="167.991" width="59.7091" height="35.4114" filterUnits="userSpaceOnUse" color-interpolation-filters="sRGB">
<feFlood flood-opacity="0" result="BackgroundImageFix"/>
<feBlend mode="normal" in="SourceGraphic" in2="BackgroundImageFix" result="shape"/>
<feGaussianBlur stdDeviation="2.78261" result="effect1_foregroundBlur_532_279"/>
</filter>
<filter id="filter3_f_532_279" x="-37.9348" y="-8.56821" width="328.348" height="317.217" filterUnits="userSpaceOnUse" color-interpolation-filters="sRGB">
<feFlood flood-opacity="0" result="BackgroundImageFix"/>
<feBlend mode="normal" in="SourceGraphic" in2="BackgroundImageFix" result="shape"/>
<feGaussianBlur stdDeviation="61.2174" result="effect1_foregroundBlur_532_279"/>
</filter>
<radialGradient id="paint0_radial_532_279" cx="0" cy="0" r="1" gradientUnits="userSpaceOnUse" gradientTransform="translate(169.37 151.432) rotate(147.907) scale(96.8931 80.5087)">
<stop offset="0.205" stop-color="#B4FBB2"/>
<stop offset="1" stop-color="#B4FBB2" stop-opacity="0"/>
</radialGradient>
<radialGradient id="paint1_radial_532_279" cx="0" cy="0" r="1" gradientUnits="userSpaceOnUse" gradientTransform="translate(81.7174 109.693) rotate(41.3987) scale(140.962 117.125)">
<stop offset="0.01" stop-color="#A4D7FF"/>
<stop offset="0.69" stop-color="#B0D9FF" stop-opacity="0"/>
</radialGradient>
<radialGradient id="paint2_radial_532_279" cx="0" cy="0" r="1" gradientUnits="userSpaceOnUse" gradientTransform="translate(64 157.217) rotate(17.7004) scale(137.282 114.068)">
<stop stop-color="#B291FC"/>
<stop offset="0.68" stop-color="#B291FC" stop-opacity="0"/>
</radialGradient>
<linearGradient id="paint3_linear_532_279" x1="175.753" y1="185.594" x2="31.8781" y2="229.619" gradientUnits="userSpaceOnUse">
<stop stop-color="#B4FBB2" stop-opacity="0.7"/>
<stop offset="1" stop-color="#B4FBB2" stop-opacity="0"/>
</linearGradient>
<clipPath id="clip0_532_279">
<rect width="256" height="256" rx="33.3913" fill="white"/>
</clipPath>
</defs>
</svg>

