<svg width="1180" height="187" viewBox="0 0 1180 187" fill="none" xmlns="http://www.w3.org/2000/svg">
    <mask id="path-1-inside-1_1251_10063" fill="white">
        <path
            d="M601.175 105.573L601.175 183.028L586.356 183.028L586.356 53.5638L601.175 53.5638L601.175 87.957L601.735 87.957C607.327 63.6301 624.943 50.7676 648.711 50.7676C686.18 50.7676 697.365 75.3741 697.365 102.777L697.365 183.028L682.545 183.028L682.545 105.573C682.545 85.1608 673.877 64.469 645.076 64.469C617.953 64.469 601.175 79.5684 601.175 105.573ZM779.625 186.104C739.08 186.104 715.033 159.54 715.033 117.597C715.033 75.6538 741.877 50.7676 779.625 50.7676C817.374 50.7676 844.218 75.6538 844.218 117.597C844.218 159.54 820.17 186.104 779.625 186.104ZM779.625 64.469C748.867 64.469 729.853 84.8812 729.853 117.317C729.853 150.033 747.469 172.123 779.346 172.123C811.222 172.123 829.398 150.033 829.398 117.317C829.398 84.8812 810.384 64.469 779.625 64.469ZM917.211 183.028L901.553 183.028L844.79 53.5638L861.008 53.5638L881.979 102.497C890.927 124.308 902.112 149.753 909.102 168.208L909.662 168.208C916.932 149.753 927.557 124.308 936.226 102.497L956.358 53.5638L972.297 53.5638L917.211 183.028ZM1021.18 172.402C1050.54 172.402 1068.44 157.023 1068.44 136.052L1068.44 125.706L1022.02 125.706C1002.17 125.706 991.542 133.815 991.542 149.473C991.542 160.658 999.092 172.402 1021.18 172.402ZM1068.44 183.028L1068.44 149.473L1067.88 149.473C1062.01 174.36 1042.43 185.824 1019.5 185.824C992.661 185.824 976.722 173.8 976.722 150.033C976.722 129.341 991.542 112.843 1020.9 112.843L1068.44 112.843L1068.44 102.777C1068.44 77.8907 1059.49 64.1893 1034.04 64.1893C1011.4 64.1893 999.372 75.0945 995.177 100.82L980.917 98.303C985.67 66.4263 1004.68 50.7676 1034.32 50.7676C1068.16 50.7676 1083.26 68.9429 1083.26 102.218L1083.26 183.028L1068.44 183.028Z" />
    </mask>
    <path
        d="M601.175 105.573L601.175 183.028L586.356 183.028L586.356 53.5638L601.175 53.5638L601.175 87.957L601.735 87.957C607.327 63.6301 624.943 50.7676 648.711 50.7676C686.18 50.7676 697.365 75.3741 697.365 102.777L697.365 183.028L682.545 183.028L682.545 105.573C682.545 85.1608 673.877 64.469 645.076 64.469C617.953 64.469 601.175 79.5684 601.175 105.573ZM779.625 186.104C739.08 186.104 715.033 159.54 715.033 117.597C715.033 75.6538 741.877 50.7676 779.625 50.7676C817.374 50.7676 844.218 75.6538 844.218 117.597C844.218 159.54 820.17 186.104 779.625 186.104ZM779.625 64.469C748.867 64.469 729.853 84.8812 729.853 117.317C729.853 150.033 747.469 172.123 779.346 172.123C811.222 172.123 829.398 150.033 829.398 117.317C829.398 84.8812 810.384 64.469 779.625 64.469ZM917.211 183.028L901.553 183.028L844.79 53.5638L861.008 53.5638L881.979 102.497C890.927 124.308 902.112 149.753 909.102 168.208L909.662 168.208C916.932 149.753 927.557 124.308 936.226 102.497L956.358 53.5638L972.297 53.5638L917.211 183.028ZM1021.18 172.402C1050.54 172.402 1068.44 157.023 1068.44 136.052L1068.44 125.706L1022.02 125.706C1002.17 125.706 991.542 133.815 991.542 149.473C991.542 160.658 999.092 172.402 1021.18 172.402ZM1068.44 183.028L1068.44 149.473L1067.88 149.473C1062.01 174.36 1042.43 185.824 1019.5 185.824C992.661 185.824 976.722 173.8 976.722 150.033C976.722 129.341 991.542 112.843 1020.9 112.843L1068.44 112.843L1068.44 102.777C1068.44 77.8907 1059.49 64.1893 1034.04 64.1893C1011.4 64.1893 999.372 75.0945 995.177 100.82L980.917 98.303C985.67 66.4263 1004.68 50.7676 1034.32 50.7676C1068.16 50.7676 1083.26 68.9429 1083.26 102.218L1083.26 183.028L1068.44 183.028Z"
        fill="white" />
    <path
        d="M601.175 183.028L601.175 184.228L602.375 184.228L602.375 183.028L601.175 183.028ZM586.356 183.028L585.156 183.028L585.156 184.228L586.356 184.228L586.356 183.028ZM586.356 53.5638L586.356 52.3638L585.156 52.3638L585.156 53.5638L586.356 53.5638ZM601.175 53.5638L602.375 53.5638L602.375 52.3638L601.175 52.3638L601.175 53.5638ZM601.175 87.957L599.975 87.957L599.975 89.157L601.175 89.157L601.175 87.957ZM601.735 87.957L601.735 89.157L602.69 89.157L602.904 88.2259L601.735 87.957ZM697.365 183.028L697.365 184.228L698.565 184.228L698.565 183.028L697.365 183.028ZM682.545 183.028L681.345 183.028L681.345 184.228L682.545 184.228L682.545 183.028ZM599.975 105.573L599.975 183.028L602.375 183.028L602.375 105.573L599.975 105.573ZM601.175 181.828L586.356 181.828L586.356 184.228L601.175 184.228L601.175 181.828ZM587.556 183.028L587.556 53.5638L585.156 53.5638L585.156 183.028L587.556 183.028ZM586.356 54.7638L601.175 54.7638L601.175 52.3638L586.356 52.3638L586.356 54.7638ZM599.975 53.5638L599.975 87.957L602.375 87.957L602.375 53.5638L599.975 53.5638ZM601.175 89.157L601.735 89.157L601.735 86.757L601.175 86.757L601.175 89.157ZM602.904 88.2259C605.647 76.2929 611.317 67.2519 619.142 61.1883C626.971 55.1217 637.046 51.9676 648.711 51.9676L648.711 49.5676C636.608 49.5676 625.991 52.8447 617.672 59.2912C609.349 65.7405 603.414 75.2942 600.565 87.6882L602.904 88.2259ZM648.711 51.9676C667.16 51.9676 678.938 58.0096 686.143 67.2348C693.391 76.5147 696.165 89.2082 696.165 102.777L698.565 102.777C698.565 88.9428 695.746 75.6317 688.034 65.7576C680.28 55.8288 667.73 49.5676 648.711 49.5676L648.711 51.9676ZM696.165 102.777L696.165 183.028L698.565 183.028L698.565 102.777L696.165 102.777ZM697.365 181.828L682.545 181.828L682.545 184.228L697.365 184.228L697.365 181.828ZM683.745 183.028L683.745 105.573L681.345 105.573L681.345 183.028L683.745 183.028ZM683.745 105.573C683.745 95.2263 681.552 84.6584 675.572 76.6485C669.547 68.579 659.8 63.2689 645.076 63.2689L645.076 65.669C659.153 65.669 668.139 70.7048 673.649 78.0843C679.203 85.5235 681.345 95.5075 681.345 105.573L683.745 105.573ZM645.076 63.2689C631.298 63.2689 620.002 67.1059 612.139 74.3889C604.264 81.6833 599.975 92.3036 599.975 105.573L602.375 105.573C602.375 92.838 606.476 82.9061 613.77 76.1496C621.077 69.3817 631.73 65.669 645.076 65.669L645.076 63.2689ZM779.625 184.904C759.625 184.904 743.817 178.36 733.003 166.76C722.178 155.151 716.233 138.344 716.233 117.597L713.833 117.597C713.833 138.793 719.912 156.239 731.247 168.397C742.593 180.566 759.081 187.304 779.625 187.304L779.625 184.904ZM716.233 117.597C716.233 96.8871 722.855 80.5036 734.023 69.3008C745.194 58.0961 761.019 51.9676 779.625 51.9676L779.625 49.5676C760.483 49.5676 744.012 55.8821 732.324 67.6063C720.633 79.3323 713.833 96.3634 713.833 117.597L716.233 117.597ZM779.625 51.9676C798.232 51.9676 814.057 58.0961 825.227 69.3008C836.396 80.5036 843.018 96.8871 843.018 117.597L845.418 117.597C845.418 96.3634 838.617 79.3323 826.927 67.6063C815.239 55.8821 798.767 49.5676 779.625 49.5676L779.625 51.9676ZM843.018 117.597C843.018 138.344 837.073 155.151 826.248 166.76C815.434 178.36 799.626 184.904 779.625 184.904L779.625 187.304C800.17 187.304 816.658 180.566 828.003 168.397C839.339 156.239 845.418 138.793 845.418 117.597L843.018 117.597ZM779.625 63.2689C763.971 63.2689 751.191 68.4709 742.33 77.9082C733.477 87.3366 728.653 100.868 728.653 117.317L731.053 117.317C731.053 101.331 735.736 88.4376 744.08 79.551C752.415 70.6731 764.521 65.669 779.625 65.669L779.625 63.2689ZM728.653 117.317C728.653 133.88 733.113 147.89 741.742 157.777C750.39 167.686 763.112 173.323 779.346 173.323L779.346 170.923C763.703 170.923 751.679 165.514 743.55 156.199C735.401 146.863 731.053 133.47 731.053 117.317L728.653 117.317ZM779.346 173.323C795.578 173.323 808.436 167.688 817.223 157.785C825.993 147.9 830.598 133.889 830.598 117.317L828.198 117.317C828.198 133.461 823.714 146.852 815.428 156.192C807.158 165.512 794.99 170.923 779.346 170.923L779.346 173.323ZM830.598 117.317C830.598 100.868 825.773 87.3366 816.921 77.9082C808.06 68.4709 795.28 63.2689 779.625 63.2689L779.625 65.669C794.729 65.669 806.835 70.6731 815.171 79.551C823.515 88.4376 828.198 101.331 828.198 117.317L830.598 117.317ZM917.211 183.028L917.211 184.228L918.005 184.228L918.316 183.498L917.211 183.028ZM901.553 183.028L900.454 183.51L900.769 184.228L901.553 184.228L901.553 183.028ZM844.79 53.5638L844.79 52.3638L842.953 52.3638L843.691 54.0456L844.79 53.5638ZM861.008 53.5638L862.111 53.0911L861.799 52.3638L861.008 52.3638L861.008 53.5638ZM881.979 102.497L883.09 102.042L883.086 102.033L883.082 102.025L881.979 102.497ZM909.102 168.208L907.98 168.633L908.274 169.408L909.102 169.408L909.102 168.208ZM909.662 168.208L909.662 169.408L910.479 169.408L910.778 168.648L909.662 168.208ZM936.226 102.497L935.116 102.041L935.113 102.047L935.11 102.054L936.226 102.497ZM956.358 53.5638L956.358 52.3638L955.554 52.3638L955.248 53.1072L956.358 53.5638ZM972.297 53.5638L973.401 54.0336L974.111 52.3638L972.297 52.3638L972.297 53.5638ZM917.211 181.828L901.553 181.828L901.553 184.228L917.211 184.228L917.211 181.828ZM902.652 182.546L845.889 53.0819L843.691 54.0456L900.454 183.51L902.652 182.546ZM844.79 54.7638L861.008 54.7638L861.008 52.3638L844.79 52.3638L844.79 54.7638ZM859.905 54.0365L880.876 102.97L883.082 102.025L862.111 53.0911L859.905 54.0365ZM880.869 102.953C889.837 124.812 900.996 150.194 907.98 168.633L910.225 167.783C903.228 149.312 892.017 123.803 883.09 102.042L880.869 102.953ZM909.102 169.408L909.662 169.408L909.662 167.008L909.102 167.008L909.102 169.408ZM910.778 168.648C918.063 150.155 928.645 124.82 937.341 102.94L935.11 102.054C926.47 123.795 915.8 149.351 908.545 167.768L910.778 168.648ZM937.335 102.954L957.468 54.0204L955.248 53.1072L935.116 102.041L937.335 102.954ZM956.358 54.7638L972.297 54.7638L972.297 52.3638L956.358 52.3638L956.358 54.7638ZM971.192 53.094L916.107 182.558L918.316 183.498L973.401 54.0336L971.192 53.094ZM1068.44 125.706L1069.64 125.706L1069.64 124.506L1068.44 124.506L1068.44 125.706ZM1068.44 183.028L1067.24 183.028L1067.24 184.228L1068.44 184.228L1068.44 183.028ZM1068.44 149.473L1069.64 149.473L1069.64 148.273L1068.44 148.273L1068.44 149.473ZM1067.88 149.473L1067.88 148.273L1066.93 148.273L1066.71 149.198L1067.88 149.473ZM1068.44 112.843L1068.44 114.043L1069.64 114.043L1069.64 112.843L1068.44 112.843ZM995.177 100.82L994.969 102.001L996.166 102.213L996.362 101.013L995.177 100.82ZM980.917 98.303L979.73 98.126L979.557 99.2816L980.708 99.4847L980.917 98.303ZM1083.26 183.028L1083.26 184.228L1084.46 184.228L1084.46 183.028L1083.26 183.028ZM1021.18 173.602C1036.06 173.602 1048.16 169.705 1056.57 163.031C1064.99 156.34 1069.64 146.909 1069.64 136.052L1067.24 136.052C1067.24 146.166 1062.94 154.91 1055.07 161.151C1047.19 167.41 1035.66 171.202 1021.18 171.202L1021.18 173.602ZM1069.64 136.052L1069.64 125.706L1067.24 125.706L1067.24 136.052L1069.64 136.052ZM1068.44 124.506L1022.02 124.506L1022.02 126.906L1068.44 126.906L1068.44 124.506ZM1022.02 124.506C1011.96 124.506 1004.03 126.556 998.601 130.769C993.116 135.023 990.342 141.348 990.342 149.473L992.742 149.473C992.742 141.94 995.281 136.381 1000.07 132.666C1004.92 128.91 1012.23 126.906 1022.02 126.906L1022.02 124.506ZM990.342 149.473C990.342 155.335 992.325 161.409 997.26 166.01C1002.19 170.608 1009.93 173.602 1021.18 173.602L1021.18 171.202C1010.34 171.202 1003.26 168.324 998.897 164.254C994.534 160.187 992.742 154.797 992.742 149.473L990.342 149.473ZM1069.64 183.028L1069.64 149.473L1067.24 149.473L1067.24 183.028L1069.64 183.028ZM1068.44 148.273L1067.88 148.273L1067.88 150.673L1068.44 150.673L1068.44 148.273ZM1066.71 149.198C1063.84 161.374 1057.63 170.203 1049.4 176C1041.14 181.807 1030.77 184.624 1019.5 184.624L1019.5 187.024C1031.16 187.024 1042.04 184.109 1050.78 177.962C1059.53 171.806 1066.05 162.459 1069.05 149.749L1066.71 149.198ZM1019.5 184.624C1006.24 184.624 995.853 181.65 988.805 175.911C981.796 170.204 977.922 161.628 977.922 150.033L975.522 150.033C975.522 162.205 979.618 171.525 987.289 177.772C994.921 183.986 1005.93 187.024 1019.5 187.024L1019.5 184.624ZM977.922 150.033C977.922 139.983 981.514 131.023 988.61 124.566C995.713 118.102 1006.44 114.043 1020.9 114.043L1020.9 111.643C1006 111.643 994.641 115.833 986.995 122.791C979.341 129.756 975.522 139.39 975.522 150.033L977.922 150.033ZM1020.9 114.043L1068.44 114.043L1068.44 111.643L1020.9 111.643L1020.9 114.043ZM1069.64 112.843L1069.64 102.777L1067.24 102.777L1067.24 112.843L1069.64 112.843ZM1069.64 102.777C1069.64 90.2328 1067.39 80.2425 1061.71 73.385C1055.98 66.4775 1046.98 62.9893 1034.04 62.9893L1034.04 65.3893C1046.56 65.3893 1054.75 68.7519 1059.86 74.9166C1065.01 81.1314 1067.24 90.4348 1067.24 102.777L1069.64 102.777ZM1034.04 62.9893C1022.53 62.9893 1013.53 65.7649 1006.87 71.9806C1000.24 78.1769 996.112 87.632 993.993 100.626L996.362 101.013C998.437 88.282 1002.42 79.422 1008.51 73.7345C1014.58 68.0663 1022.91 65.3893 1034.04 65.3893L1034.04 62.9893ZM995.386 99.6378L981.125 97.1212L980.708 99.4847L994.969 102.001L995.386 99.6378ZM982.104 98.4799C984.45 82.7425 990.294 71.1499 999.077 63.4857C1007.86 55.823 1019.72 51.9676 1034.32 51.9676L1034.32 49.5676C1019.29 49.5676 1006.82 53.5415 997.499 61.6773C988.177 69.8117 982.137 81.9867 979.73 98.126L982.104 98.4799ZM1034.32 51.9676C1051.03 51.9676 1062.89 56.4513 1070.6 64.8269C1078.32 73.2218 1082.06 85.7378 1082.06 102.218L1084.46 102.218C1084.46 85.4227 1080.65 72.2137 1072.36 63.2023C1064.06 54.1715 1051.45 49.5676 1034.32 49.5676L1034.32 51.9676ZM1082.06 102.218L1082.06 183.028L1084.46 183.028L1084.46 102.218L1082.06 102.218ZM1083.26 181.828L1068.44 181.828L1068.44 184.228L1083.26 184.228L1083.26 181.828Z"
        fill="black" mask="url(#path-1-inside-1_1251_10063)" />
    <path
        d="M48.6309 29.0274C54.4887 26.0985 60.4714 24.629 66.5733 24.6289L84.5869 24.6289C96.111 24.6289 105.381 27.5797 112.337 33.5342L113.003 34.1192C119.937 40.3819 124.512 49.7065 126.781 62.0235L154.083 62.0235C152.487 48.5606 148.641 37.2778 142.56 28.1553L141.975 27.294C135.878 18.4666 128.029 11.9229 118.42 7.65237L118.411 7.64847L117.477 7.22073C107.783 2.86871 97.0456 0.688507 85.2549 0.688507L66.5733 0.688507C54.8587 0.68852 44.0378 3.22968 34.1026 8.30765L33.1778 8.78909C23.6776 13.8331 16.046 20.841 10.2754 29.8174L10.2725 29.8223L9.72366 30.6729C4.14508 39.5104 1.34874 49.8038 1.34866 61.5723C1.34866 64.5584 1.50089 67.0043 1.80374 69.2676L1.87796 69.7344C2.77112 74.5071 7.35089 77.6903 12.3848 77.6905L19.6836 77.6905C29.239 77.6906 37.0139 85.3152 37.2549 94.8125L37.2598 95.2666C37.26 99.664 40.8253 103.228 45.2227 103.229L106.146 103.229C113.57 103.229 121.213 106.435 123.461 113.691L123.564 114.04C124.651 117.907 125.192 122.092 125.192 126.083C125.192 133.295 123.501 139.525 120.095 144.748L120.092 144.753L119.75 145.257C116.189 150.43 111.671 154.443 106.198 157.289L106.19 157.293L105.641 157.564C99.9584 160.312 94.1592 161.692 88.2481 161.692L70.2344 161.692C58.3387 161.692 48.8449 158.548 41.8184 152.201L41.168 151.598C34.5979 145.346 30.2384 136.224 28.041 124.297L0.738312 124.297C2.28336 137.333 5.93888 148.324 11.6905 157.29L12.2627 158.165C18.4389 167.429 26.4828 174.26 36.4014 178.668L36.4112 178.672L36.1778 179.171L36.4112 178.673C46.3472 183.31 57.3959 185.632 69.5664 185.632L88.2481 185.632C99.9626 185.632 110.784 183.092 120.719 178.014L121.644 177.531C131.144 172.487 138.775 165.479 144.546 156.503L144.549 156.498L145.098 155.647C150.676 146.81 153.474 136.517 153.474 124.748C153.474 120.91 153.222 116.601 152.719 112.567L152.648 112.102C151.812 107.339 147.454 104.145 142.464 104.145L135.169 104.145C125.664 104.144 117.93 96.5598 117.69 87.1123L117.685 86.6612C117.684 82.2892 114.141 78.7442 109.769 78.7442L48.6826 78.7442C44.9148 78.7441 40.9606 78.0139 37.6709 76.3575C34.3743 74.6974 31.7213 72.0922 30.6426 68.3516L30.5196 67.9073C29.9239 65.6692 29.6289 63.1777 29.6289 60.2373C29.6289 53.0257 31.3203 46.7953 34.7266 41.5723L34.7295 41.5684L35.0713 41.0635C38.6319 35.8902 43.1506 31.877 48.6231 29.0313L48.6309 29.0274ZM48.6309 29.0274L48.877 29.5186L48.877 29.5196L48.8633 29.4932L48.6309 29.0274Z"
        fill="white" stroke="black" stroke-width="1.10108" />
    <mask id="path-4-inside-2_1251_10063" fill="white">
        <path
            d="M243.904 186.738C201.811 186.738 177.883 162.685 177.883 120.341L177.883 116.332C177.883 73.863 201.811 49.935 243.904 49.935C286.123 49.935 310.051 73.863 310.051 116.332L310.051 120.341C310.051 162.685 286.123 186.738 243.904 186.738ZM244.029 166.443C266.955 166.443 281.988 151.41 281.988 121.594L281.988 115.079C281.988 85.2632 266.955 70.2299 244.029 70.2299C220.978 70.2299 205.945 85.2632 205.945 115.079L205.945 121.594C205.945 151.41 220.978 166.443 244.029 166.443ZM334.79 182.479L334.79 54.1944L361.099 54.1944L361.099 80.5027C367.864 61.2099 382.145 52.8163 402.816 52.8163C408.704 52.8163 412.337 53.4427 413.715 53.8186L413.715 76.9949C411.711 76.6191 406.574 75.9927 400.561 75.9927C374.754 75.9927 362.226 88.2699 362.226 112.95L362.226 182.479L334.79 182.479ZM467.519 186.362C438.956 186.362 424.048 172.707 424.048 149.405L424.048 148.403C424.048 127.983 435.072 116.833 461.631 112.073L516.378 102.426L516.378 92.7799C516.378 77.9971 507.733 69.4782 488.19 69.4782C468.271 69.4782 458.625 78.2477 457.622 95.1601L430.562 95.1601C431.314 66.5969 448.853 49.935 489.192 49.935C528.404 49.935 543.813 65.3441 543.813 90.3996L543.813 158.425C543.813 162.559 546.319 164.814 551.205 164.814C553.209 164.814 555.339 164.439 555.84 164.313L555.84 182.729C552.457 183.606 546.82 184.608 540.807 184.608C524.145 184.608 516.378 177.092 516.378 164.313L516.378 159.177C508.485 176.465 491.322 186.362 467.519 186.362ZM451.734 148.152C451.734 159.929 459.877 167.696 477.667 167.696C501.72 167.696 516.378 153.665 516.378 133.871L516.378 120.09L471.653 128.233C457.998 130.614 451.734 137.003 451.734 147.401L451.734 148.152Z" />
    </mask>
    <path
        d="M243.904 186.738C201.811 186.738 177.883 162.685 177.883 120.341L177.883 116.332C177.883 73.863 201.811 49.935 243.904 49.935C286.123 49.935 310.051 73.863 310.051 116.332L310.051 120.341C310.051 162.685 286.123 186.738 243.904 186.738ZM244.029 166.443C266.955 166.443 281.988 151.41 281.988 121.594L281.988 115.079C281.988 85.2632 266.955 70.2299 244.029 70.2299C220.978 70.2299 205.945 85.2632 205.945 115.079L205.945 121.594C205.945 151.41 220.978 166.443 244.029 166.443ZM334.79 182.479L334.79 54.1944L361.099 54.1944L361.099 80.5027C367.864 61.2099 382.145 52.8163 402.816 52.8163C408.704 52.8163 412.337 53.4427 413.715 53.8186L413.715 76.9949C411.711 76.6191 406.574 75.9927 400.561 75.9927C374.754 75.9927 362.226 88.2699 362.226 112.95L362.226 182.479L334.79 182.479ZM467.519 186.362C438.956 186.362 424.048 172.707 424.048 149.405L424.048 148.403C424.048 127.983 435.072 116.833 461.631 112.073L516.378 102.426L516.378 92.7799C516.378 77.9971 507.733 69.4782 488.19 69.4782C468.271 69.4782 458.625 78.2477 457.622 95.1601L430.562 95.1601C431.314 66.5969 448.853 49.935 489.192 49.935C528.404 49.935 543.813 65.3441 543.813 90.3996L543.813 158.425C543.813 162.559 546.319 164.814 551.205 164.814C553.209 164.814 555.339 164.439 555.84 164.313L555.84 182.729C552.457 183.606 546.82 184.608 540.807 184.608C524.145 184.608 516.378 177.092 516.378 164.313L516.378 159.177C508.485 176.465 491.322 186.362 467.519 186.362ZM451.734 148.152C451.734 159.929 459.877 167.696 477.667 167.696C501.72 167.696 516.378 153.665 516.378 133.871L516.378 120.09L471.653 128.233C457.998 130.614 451.734 137.003 451.734 147.401L451.734 148.152Z"
        fill="white" />
    <path
        d="M243.904 185.637C223.065 185.637 206.873 179.687 195.889 168.642C184.905 157.596 178.984 141.309 178.984 120.341L176.782 120.341C176.782 141.717 182.825 158.628 194.328 170.195C205.832 181.763 222.65 187.839 243.904 187.839L243.904 185.637ZM178.984 120.341L178.984 116.332L176.782 116.332L176.782 120.341L178.984 120.341ZM178.984 116.332C178.984 95.3006 184.905 79.0138 195.889 67.9846C206.871 56.9559 223.063 51.036 243.904 51.036L243.904 48.8339C222.652 48.8339 205.833 54.878 194.328 66.4306C182.824 77.9827 176.782 94.8944 176.782 116.332L178.984 116.332ZM243.904 51.036C264.808 51.036 281.032 56.9564 292.03 67.9851C303.028 79.0142 308.949 95.3006 308.949 116.332L311.152 116.332C311.152 94.8944 305.109 77.9823 293.589 66.4301C282.068 54.8775 265.218 48.8339 243.904 48.8339L243.904 51.036ZM308.949 116.332L308.949 120.341L311.152 120.341L311.152 116.332L308.949 116.332ZM308.949 120.341C308.949 141.309 303.028 157.596 292.029 168.641C281.03 179.686 264.807 185.637 243.904 185.637L243.904 187.839C265.22 187.839 282.07 181.763 293.589 170.195C305.109 158.628 311.152 141.717 311.152 120.341L308.949 120.341ZM244.029 167.544C255.743 167.544 265.558 163.695 272.431 155.929C279.287 148.181 283.089 136.675 283.089 121.594L280.887 121.594C280.887 136.328 277.173 147.247 270.781 154.47C264.406 161.674 255.242 165.342 244.029 165.342L244.029 167.544ZM283.089 121.594L283.089 115.079L280.887 115.079L280.887 121.594L283.089 121.594ZM283.089 115.079C283.089 99.9978 279.287 88.4921 272.431 80.7439C265.558 72.9778 255.743 69.1288 244.029 69.1288L244.029 71.331C255.242 71.331 264.406 74.9986 270.781 82.2033C277.173 89.4257 280.887 100.345 280.887 115.079L283.089 115.079ZM244.029 69.1288C232.255 69.1288 222.408 72.9767 215.519 80.7429C208.646 88.4914 204.844 99.9979 204.844 115.079L207.046 115.079C207.046 100.345 210.76 89.4264 217.167 82.2042C223.557 74.9998 232.753 71.331 244.029 71.331L244.029 69.1288ZM204.844 115.079L204.844 121.594L207.046 121.594L207.046 115.079L204.844 115.079ZM204.844 121.594C204.844 136.675 208.646 148.181 215.519 155.93C222.408 163.696 232.255 167.544 244.029 167.544L244.029 165.342C232.753 165.342 223.557 161.673 217.167 154.469C210.76 147.247 207.046 136.328 207.046 121.594L204.844 121.594ZM334.79 182.479L333.689 182.479L333.689 183.58L334.79 183.58L334.79 182.479ZM334.79 54.1944L334.79 53.0933L333.689 53.0933L333.689 54.1944L334.79 54.1944ZM361.099 54.1944L362.2 54.1944L362.2 53.0933L361.099 53.0933L361.099 54.1944ZM361.099 80.5027L359.998 80.5027L362.138 80.867L361.099 80.5027ZM413.715 53.8186L414.816 53.8186L414.816 52.9776L414.005 52.7563L413.715 53.8186ZM413.715 76.9949L413.512 78.0771L414.816 78.3216L414.816 76.9949L413.715 76.9949ZM362.226 182.479L362.226 183.58L363.327 183.58L363.327 182.479L362.226 182.479ZM335.891 182.479L335.891 54.1944L333.689 54.1944L333.689 182.479L335.891 182.479ZM334.79 55.2955L361.099 55.2955L361.099 53.0933L334.79 53.0933L334.79 55.2955ZM359.998 54.1944L359.998 80.5027L362.2 80.5027L362.2 54.1944L359.998 54.1944ZM362.138 80.867C365.453 71.4114 370.578 64.7063 377.339 60.3503C384.112 55.9866 392.625 53.9174 402.816 53.9174L402.816 51.7153C392.336 51.7153 383.373 53.8429 376.146 58.4991C368.907 63.1632 363.509 70.3011 360.06 80.1383L362.138 80.867ZM402.816 53.9174C408.641 53.9174 412.17 54.5385 413.425 54.8808L414.005 52.7563C412.504 52.347 408.767 51.7153 402.816 51.7153L402.816 53.9174ZM412.614 53.8186L412.614 76.9949L414.816 76.9949L414.816 53.8186L412.614 53.8186ZM413.918 75.9127C411.841 75.5233 406.637 74.8916 400.561 74.8916L400.561 77.0937C406.512 77.0937 411.58 77.7149 413.512 78.0771L413.918 75.9127ZM400.561 74.8916C387.501 74.8916 377.591 77.9972 370.95 84.4251C364.303 90.8596 361.125 100.436 361.125 112.95L363.327 112.95C363.327 100.784 366.413 91.8813 372.482 86.0074C378.557 80.1268 387.814 77.0937 400.561 77.0937L400.561 74.8916ZM361.125 112.95L361.125 182.479L363.327 182.479L363.327 112.95L361.125 112.95ZM362.226 181.377L334.79 181.377L334.79 183.58L362.226 183.58L362.226 181.377ZM461.631 112.073L461.44 110.988L461.437 110.989L461.631 112.073ZM516.378 102.426L516.569 103.511L517.479 103.35L517.479 102.426L516.378 102.426ZM457.622 95.1601L457.622 96.2612L458.66 96.2612L458.722 95.2253L457.622 95.1601ZM430.562 95.1601L429.462 95.1312L429.432 96.2612L430.562 96.2612L430.562 95.1601ZM555.84 164.313L556.941 164.313L556.941 162.903L555.573 163.245L555.84 164.313ZM555.84 182.729L556.116 183.795L556.941 183.581L556.941 182.729L555.84 182.729ZM516.378 159.177L517.479 159.177L515.376 158.72L516.378 159.177ZM516.378 120.09L517.479 120.09L517.479 118.771L516.18 119.007L516.378 120.09ZM471.653 128.233L471.843 129.318L471.851 129.317L471.653 128.233ZM467.519 185.261C453.397 185.261 442.823 181.884 435.794 175.79C428.788 169.717 425.149 160.811 425.149 149.405L422.947 149.405C422.947 161.301 426.762 170.874 434.351 177.454C441.916 184.012 453.078 187.463 467.519 187.463L467.519 185.261ZM425.149 149.405L425.149 148.403L422.947 148.403L422.947 149.405L425.149 149.405ZM425.149 148.403C425.149 138.404 427.84 130.828 433.65 125.153C439.498 119.441 448.641 115.52 461.826 113.156L461.437 110.989C448.063 113.386 438.414 117.42 432.111 123.578C425.769 129.773 422.947 137.982 422.947 148.403L425.149 148.403ZM461.822 113.157L516.569 103.511L516.186 101.342L461.44 110.988L461.822 113.157ZM517.479 102.426L517.479 92.7799L515.276 92.7799L515.276 102.426L517.479 102.426ZM517.479 92.7799C517.479 85.1703 515.246 78.9975 510.332 74.7523C505.449 70.5333 498.098 68.3772 488.19 68.3772L488.19 70.5793C497.826 70.5793 504.568 72.6827 508.893 76.4187C513.187 80.1287 515.276 85.6067 515.276 92.7799L517.479 92.7799ZM488.19 68.3772C478.088 68.3772 470.398 70.5989 465.096 75.1408C459.775 79.6994 457.036 86.4425 456.523 95.095L458.722 95.2253C459.211 86.9653 461.796 80.8674 466.529 76.8132C471.281 72.7423 478.373 70.5793 488.19 70.5793L488.19 68.3772ZM457.622 94.0591L430.562 94.0591L430.562 96.2612L457.622 96.2612L457.622 94.0591ZM431.663 95.1891C432.033 81.1363 436.519 70.1722 445.726 62.6909C454.971 55.1793 469.149 51.036 489.192 51.036L489.192 48.8339C468.896 48.8339 454.135 53.0216 444.338 60.9818C434.503 68.9722 429.844 80.6207 429.462 95.1312L431.663 95.1891ZM489.192 51.036C508.685 51.036 522.047 54.8713 530.521 61.6322C538.945 68.3538 542.712 78.1102 542.712 90.3996L544.914 90.3996C544.914 77.6335 540.977 67.1575 531.894 59.9108C522.86 52.7032 508.912 48.8339 489.192 48.8339L489.192 51.036ZM542.712 90.3996L542.712 158.425L544.914 158.425L544.914 90.3996L542.712 90.3996ZM542.712 158.425C542.712 160.721 543.416 162.658 544.952 163.999C546.463 165.319 548.612 165.915 551.205 165.915L551.205 163.713C548.912 163.713 547.365 163.182 546.401 162.341C545.463 161.522 544.914 160.264 544.914 158.425L542.712 158.425ZM551.205 165.915C553.308 165.915 555.528 165.526 556.107 165.381L555.573 163.245C555.15 163.351 553.11 163.713 551.205 163.713L551.205 165.915ZM554.739 164.313L554.739 182.729L556.941 182.729L556.941 164.313L554.739 164.313ZM555.564 181.663C552.254 182.521 546.71 183.507 540.807 183.507L540.807 185.709C546.93 185.709 552.661 184.691 556.116 183.795L555.564 181.663ZM540.807 183.507C532.62 183.507 526.813 181.658 523.064 178.419C519.342 175.205 517.479 170.473 517.479 164.313L515.276 164.313C515.276 170.932 517.297 176.348 521.624 180.086C525.924 183.8 532.331 185.709 540.807 185.709L540.807 183.507ZM517.479 164.313L517.479 159.177L515.276 159.177L515.276 164.313L517.479 164.313ZM515.376 158.72C507.704 175.526 491 185.261 467.519 185.261L467.519 187.463C491.645 187.463 509.267 177.405 517.379 159.634L515.376 158.72ZM450.633 148.152C450.633 154.314 452.777 159.541 457.341 163.199C461.868 166.827 468.633 168.797 477.667 168.797L477.667 166.595C468.911 166.595 462.71 164.681 458.718 161.481C454.763 158.311 452.835 153.767 452.835 148.152L450.633 148.152ZM477.667 168.797C489.905 168.797 499.864 165.225 506.777 159.026C513.7 152.818 517.479 144.054 517.479 133.871L515.276 133.871C515.276 143.482 511.726 151.63 505.307 157.386C498.879 163.151 489.482 166.595 477.667 166.595L477.667 168.797ZM517.479 133.871L517.479 120.09L515.276 120.09L515.276 133.871L517.479 133.871ZM516.18 119.007L471.456 127.15L471.851 129.317L516.575 121.174L516.18 119.007ZM471.464 127.149C464.519 128.359 459.296 130.614 455.804 134.022C452.281 137.461 450.633 141.962 450.633 147.401L452.835 147.401C452.835 142.442 454.319 138.549 457.342 135.598C460.396 132.618 465.133 130.488 471.843 129.318L471.464 127.149ZM450.633 147.401L450.633 148.152L452.835 148.152L452.835 147.401L450.633 147.401Z"
        fill="black" mask="url(#path-4-inside-2_1251_10063)" />
    <mask id="path-6-inside-3_1251_10063" fill="white">
        <path
            d="M1109.51 59.7406L1109.51 25.9502L1096.66 25.9502L1096.66 21.1922L1128.62 21.1922L1128.62 25.9502L1115.77 25.9502L1115.77 59.7406L1109.51 59.7406ZM1134.41 59.7406L1134.41 21.1922L1143.55 21.1922L1155.27 50.8159L1166.99 21.1922L1176.02 21.1922L1176.02 59.7406L1169.92 59.7406L1169.95 26.9717L1157.12 59.7406L1153.09 59.7406L1140.24 27.1061L1140.27 59.7406L1134.41 59.7406Z" />
    </mask>
    <path
        d="M1109.51 59.7406L1109.51 25.9502L1096.66 25.9502L1096.66 21.1922L1128.62 21.1922L1128.62 25.9502L1115.77 25.9502L1115.77 59.7406L1109.51 59.7406ZM1134.41 59.7406L1134.41 21.1922L1143.55 21.1922L1155.27 50.8159L1166.99 21.1922L1176.02 21.1922L1176.02 59.7406L1169.92 59.7406L1169.95 26.9717L1157.12 59.7406L1153.09 59.7406L1140.24 27.1061L1140.27 59.7406L1134.41 59.7406Z"
        fill="white" />
    <path
        d="M1109.51 59.7406L1109.06 59.7406L1109.06 60.1811L1109.51 60.1811L1109.51 59.7406ZM1109.51 25.9502L1109.95 25.9502L1109.95 25.5098L1109.51 25.5098L1109.51 25.9502ZM1096.66 25.9502L1096.22 25.9502L1096.22 26.3907L1096.66 26.3907L1096.66 25.9502ZM1096.66 21.1922L1096.66 20.7517L1096.22 20.7517L1096.22 21.1922L1096.66 21.1922ZM1128.62 21.1922L1129.06 21.1922L1129.06 20.7517L1128.62 20.7517L1128.62 21.1922ZM1128.62 25.9502L1128.62 26.3907L1129.06 26.3907L1129.06 25.9502L1128.62 25.9502ZM1115.77 25.9502L1115.77 25.5098L1115.33 25.5098L1115.33 25.9502L1115.77 25.9502ZM1115.77 59.7406L1115.77 60.1811L1116.21 60.1811L1116.21 59.7406L1115.77 59.7406ZM1109.95 59.7406L1109.95 25.9502L1109.06 25.9502L1109.06 59.7406L1109.95 59.7406ZM1109.51 25.5098L1096.66 25.5098L1096.66 26.3907L1109.51 26.3907L1109.51 25.5098ZM1097.1 25.9502L1097.1 21.1922L1096.22 21.1922L1096.22 25.9502L1097.1 25.9502ZM1096.66 21.6326L1128.62 21.6326L1128.62 20.7517L1096.66 20.7517L1096.66 21.6326ZM1128.18 21.1922L1128.18 25.9502L1129.06 25.9502L1129.06 21.1922L1128.18 21.1922ZM1128.62 25.5098L1115.77 25.5098L1115.77 26.3907L1128.62 26.3907L1128.62 25.5098ZM1115.33 25.9502L1115.33 59.7406L1116.21 59.7406L1116.21 25.9502L1115.33 25.9502ZM1115.77 59.3002L1109.51 59.3002L1109.51 60.1811L1115.77 60.1811L1115.77 59.3002ZM1134.41 59.7406L1133.97 59.7406L1133.97 60.1811L1134.41 60.1811L1134.41 59.7406ZM1134.41 21.1922L1134.41 20.7517L1133.97 20.7517L1133.97 21.1922L1134.41 21.1922ZM1143.55 21.1922L1143.96 21.0301L1143.85 20.7517L1143.55 20.7517L1143.55 21.1922ZM1155.27 50.8159L1154.86 50.9779L1155.27 52.013L1155.68 50.9779L1155.27 50.8159ZM1166.99 21.1922L1166.99 20.7517L1166.69 20.7517L1166.58 21.0301L1166.99 21.1922ZM1176.02 21.1922L1176.46 21.1922L1176.46 20.7517L1176.02 20.7517L1176.02 21.1922ZM1176.02 59.7406L1176.02 60.1811L1176.46 60.1811L1176.46 59.7406L1176.02 59.7406ZM1169.92 59.7406L1169.48 59.7403L1169.48 60.1811L1169.92 60.1811L1169.92 59.7406ZM1169.95 26.9717L1170.39 26.9721L1169.54 26.8112L1169.95 26.9717ZM1157.12 59.7406L1157.12 60.1811L1157.43 60.1811L1157.54 59.9011L1157.12 59.7406ZM1153.09 59.7406L1152.68 59.902L1152.79 60.1811L1153.09 60.1811L1153.09 59.7406ZM1140.24 27.1061L1140.65 26.9448L1139.8 27.1065L1140.24 27.1061ZM1140.27 59.7406L1140.27 60.1811L1140.71 60.1811L1140.71 59.7403L1140.27 59.7406ZM1134.85 59.7406L1134.85 21.1922L1133.97 21.1922L1133.97 59.7406L1134.85 59.7406ZM1134.41 21.6326L1143.55 21.6326L1143.55 20.7517L1134.41 20.7517L1134.41 21.6326ZM1143.14 21.3542L1154.86 50.9779L1155.68 50.6538L1143.96 21.0301L1143.14 21.3542ZM1155.68 50.9779L1167.4 21.3542L1166.58 21.0301L1154.86 50.6538L1155.68 50.9779ZM1166.99 21.6326L1176.02 21.6326L1176.02 20.7517L1166.99 20.7517L1166.99 21.6326ZM1175.58 21.1922L1175.58 59.7406L1176.46 59.7406L1176.46 21.1922L1175.58 21.1922ZM1176.02 59.3002L1169.92 59.3002L1169.92 60.1811L1176.02 60.1811L1176.02 59.3002ZM1170.36 59.741L1170.39 26.9721L1169.51 26.9714L1169.48 59.7403L1170.36 59.741ZM1169.54 26.8112L1156.71 59.5801L1157.54 59.9011L1170.36 27.1322L1169.54 26.8112ZM1157.12 59.3002L1153.09 59.3002L1153.09 60.1811L1157.12 60.1811L1157.12 59.3002ZM1153.5 59.5793L1140.65 26.9448L1139.83 27.2675L1152.68 59.902L1153.5 59.5793ZM1139.8 27.1065L1139.83 59.741L1140.71 59.7403L1140.68 27.1058L1139.8 27.1065ZM1140.27 59.3002L1134.41 59.3002L1134.41 60.1811L1140.27 60.1811L1140.27 59.3002Z"
        fill="black" mask="url(#path-6-inside-3_1251_10063)" />
</svg>